:SAMPLES-PER-SECOND 30
:FULLY-SPECIFIED
:DEGREES
519
root  10.3855 38.2315 -1.42295 -165.127 -74.1877 155.269
RightUpLeg  0.19212 4.97894 -13.4085
RightLeg  60.1628 3.90571 6.79194
RightFoot  3.85302 -1.28483 9.81702
RightToes  2.21189e-009 0 -3.6325e-017
Spine  8.36904 1.11501 -2.03629
Spine1  10.4138 1.50561 -5.44999
HEad  2.45631 -21.09 -1.55411
LeftShoulder1  -0.0355352 3.59105 -33.4364
LeftArm  -5.46097 13.0951 -39.1959
LeftForeArm  24.1586 -11.2956 -6.75932
LeftHand  -0.0139554 4.50945 -1.57747
RightShoulder  -0.753381 -5.63144 28.7572
RightArm  12.7828 -3.72309 47.4456
RightForeArm  5.64534 8.88925 6.91378
RightHand  -0.426132 1.97201 -6.91429
LeftUpLeg  -9.85558 7.71498 -9.3512
LeftLeg  22.208 1.10924 0.603726
LeftFoot  -2.99948 -0.662648 9.30749
LeftToes  -3.01956e-010 3.07132e-011 1.04116e-011
520
root  9.28529 38.44 -1.49907 -165.113 -75.1802 155.204
RightUpLeg  -4.2607 5.51438 -12.3025
RightLeg  62.3097 3.95162 7.59666
RightFoot  2.72892 -1.2501 10.2442
RightToes  2.21189e-009 0 -3.6325e-017
Spine  8.32541 0.534845 -3.22332
Spine1  10.5134 0.373991 -4.09026
HEad  2.66039 -20.1924 -1.00648
LeftShoulder1  -0.0345108 3.58028 -33.1368
LeftArm  -4.67011 12.6465 -39.324
LeftForeArm  24.0777 -11.8825 -6.79897
LeftHand  -0.00944226 3.89611 -1.02064
RightShoulder  -0.820417 -5.79931 29.1266
RightArm  15.7731 -4.73577 47.3417
RightForeArm  4.2474 13.0061 6.54891
RightHand  -0.436776 2.88442 -6.34435
LeftUpLeg  -7.39341 6.57206 -9.09509
LeftLeg  21.4028 1.42587 0.369725
LeftFoot  -4.40863 -0.532867 9.21591
LeftToes  -3.01956e-010 3.07132e-011 1.04116e-011
521
root  8.20151 38.6431 -1.58423 -165.271 -76.3217 155.423
RightUpLeg  -8.28167 5.31309 -11.2108
RightLeg  61.6912 2.82853 5.21152
RightFoot  1.23771 -1.01812 9.298
RightToes  2.21189e-009 0 -3.6325e-017
Spine  8.48966 -0.106744 -4.37513
Spine1  9.8775 -0.827944 -2.46782
HEad  3.39526 -19.4431 -0.492126
LeftShoulder1  -0.0296187 3.58065 -32.7958
LeftArm  -3.77385 12.7353 -39.6396
LeftForeArm  22.7629 -13.2881 -6.49778
LeftHand  -0.0171413 3.65229 -0.122281
RightShoulder  -0.800349 -5.74962 29.012
RightArm  20.0326 -6.05531 47.2598
RightForeArm  0.921134 17.5363 5.66399
RightHand  -0.459079 3.24501 -6.40786
LeftUpLeg  -4.84094 6.01394 -8.63089
LeftLeg  20.162 1.08604 -0.186609
LeftFoot  -5.68034 -0.421491 9.19766
LeftToes  -3.01956e-010 3.07132e-011 1.04116e-011
522
root  7.09045 38.8469 -1.63661 -166.449 -77.0626 156.354
RightUpLeg  -11.1584 5.10609 -10.1749
RightLeg  58.0237 1.44293 2.06872
RightFoot  -0.68851 -0.785322 8.34123
RightToes  2.21189e-009 0 -3.6325e-017
Spine  8.41183 -0.618709 -4.83249
Spine1  9.86575 -1.64121 -1.28977
HEad  3.99161 -19.3431 0.113571
LeftShoulder1  -0.0198381 3.55515 -32.5591
LeftArm  -2.26578 12.3899 -39.7518
LeftForeArm  20.6234 -14.8849 -6.17149
LeftHand  -0.0316155 4.01484 0.821942
RightShoulder  -0.773916 -5.6853 28.8411
RightArm  23.3849 -6.54709 47.0798
RightForeArm  -1.19536 21.1479 5.07631
RightHand  -0.469531 3.19385 -6.58788
LeftUpLeg  -1.66681 5.62522 -8.15729
LeftLeg  18.358 0.974007 -0.61087
LeftFoot  -6.68871 -0.335578 9.23236
LeftToes  -3.01956e-010 3.07132e-011 1.04116e-011
523
root  6.00605 38.9703 -1.69709 -167.277 -77.5523 156.972
RightUpLeg  -13.3107 4.6287 -9.34648
RightLeg  51.8383 0.332309 0.0731494
RightFoot  -1.91189 -0.573418 6.80903
RightToes  2.21189e-009 0 -3.6325e-017
Spine  8.22627 -0.943618 -5.4159
Spine1  10.0552 -2.25472 0.0729844
HEad  3.75455 -15.5098 -0.117416
LeftShoulder1  -0.016798 3.54742 -32.5518
LeftArm  -0.663452 11.5414 -39.6078
LeftForeArm  18.4273 -16.611 -5.70301
LeftHand  -0.0400107 3.59857 1.42813
RightShoulder  -0.766381 -5.67588 28.6435
RightArm  24.4932 -6.5246 46.8514
RightForeArm  -0.407221 23.8372 5.08212
RightHand  -0.500769 3.79714 -6.57907
LeftUpLeg  1.17031 5.54291 -7.90479
LeftLeg  16.9458 0.761664 -0.81585
LeftFoot  -7.76486 -0.247393 9.41257
LeftToes  -3.01956e-010 3.07132e-011 1.04116e-011
524
root  4.94515 39.0102 -1.76447 -167.309 -78.0929 156.775
RightUpLeg  -14.3312 3.4514 -8.71427
RightLeg  43.2246 -0.342428 -0.628517
RightFoot  -3.03678 -0.54367 7.19774
RightToes  2.21189e-009 0 -3.6325e-017
Spine  8.36497 -1.33173 -5.70691
Spine1  9.77626 -2.73498 0.825608
HEad  2.31866 -1.57706 -1.31908
LeftShoulder1  0.00937425 3.47842 -32.0861
LeftArm  0.56416 10.6498 -39.6714
LeftForeArm  17.5327 -17.8489 -5.34297
LeftHand  -0.0443132 3.64764 1.69696
RightShoulder  -0.74437 -5.62012 28.5226
RightArm  24.6468 -6.30371 46.9325
RightForeArm  0.488142 25.3165 5.39978
RightHand  -0.546473 3.75645 -7.18784
LeftUpLeg  3.68373 5.7108 -7.80324
LeftLeg  16.0768 0.226201 -0.969468
LeftFoot  -8.98838 -0.146433 9.73286
LeftToes  -3.01956e-010 3.07132e-011 1.04116e-011
525
root  3.87503 38.9657 -1.84886 -165.991 -78.1956 155.174
RightUpLeg  -14.5433 1.49385 -8.25559
RightLeg  33.2203 -1.15014 -1.05478
RightFoot  -3.44001 -0.553519 7.6593
RightToes  2.21189e-009 0 -3.6325e-017
Spine  8.24245 -1.48864 -5.92789
Spine1  9.78453 -2.80857 0.981089
HEad  3.04866 -4.6358 -0.542679
LeftShoulder1  0.0776612 3.29718 -31.4265
LeftArm  1.22332 9.72572 -39.7737
LeftForeArm  16.4841 -19.1662 -4.90393
LeftHand  -0.0565566 3.08259 2.1286
RightShoulder  -0.773945 -5.68945 28.7758
RightArm  24.6241 -5.65824 46.856
RightForeArm  0.98629 25.6796 5.45843
RightHand  -0.526376 3.64335 -7.01178
LeftUpLeg  6.04393 5.78903 -8.19297
LeftLeg  15.527 0.273649 -0.905745
LeftFoot  -10.5478 -0.00404443 9.73
LeftToes  -3.01956e-010 3.07132e-011 1.04116e-011
526
root  2.77614 38.9222 -1.91918 -165.044 -77.8555 153.733
RightUpLeg  -13.6046 -2.86654 -7.43285
RightLeg  22.0525 -1.46745 -1.00365
RightFoot  -2.91727 -0.574114 7.52157
RightToes  2.21189e-009 0 -3.6325e-017
Spine  8.31627 -1.4842 -6.12811
Spine1  9.71978 -2.80409 1.55633
HEad  3.7276 -6.30719 -0.155823
LeftShoulder1  0.0579511 3.35063 -31.7325
LeftArm  1.84662 8.7033 -39.2214
LeftForeArm  15.1505 -20.4077 -4.57037
LeftHand  -0.0569269 3.50129 2.47453
RightShoulder  -0.763558 -5.66893 28.6252
RightArm  24.7639 -5.05058 46.9839
RightForeArm  0.504672 25.2001 5.37518
RightHand  -0.553896 3.86727 -7.207
LeftUpLeg  8.93697 5.78307 -8.76296
LeftLeg  14.3475 0.781709 -0.776839
LeftFoot  -11.7399 0.104874 9.7236
LeftToes  -3.01956e-010 3.07132e-011 1.04116e-011
527
root  1.6593 38.8542 -2.02349 -163.537 -77.5164 151.991
RightUpLeg  -12.1245 -8.79068 -6.27746
RightLeg  10.9265 -2.6768 -0.0870546
RightFoot  -2.28951 -0.6119 7.51295
RightToes  2.21189e-009 0 -3.6325e-017
Spine  7.52259 -1.57588 -6.3476
Spine1  10.3336 -2.86914 2.029
HEad  4.3349 -7.67511 0.356339
LeftShoulder1  0.0931439 3.25661 -31.5608
LeftArm  1.21287 7.76868 -39.0641
LeftForeArm  15.3756 -20.7813 -4.43484
LeftHand  -0.0746627 2.46129 2.54017
RightShoulder  -0.736027 -5.60228 28.4221
RightArm  24.34 -4.60087 47.3694
RightForeArm  -0.10986 24.2257 5.18718
RightHand  -0.543423 4.13489 -6.89969
LeftUpLeg  11.622 5.7246 -9.43157
LeftLeg  13.097 1.32251 -0.688675
LeftFoot  -12.8176 0.202541 9.71896
LeftToes  -3.01956e-010 3.07132e-011 1.04116e-011
528
root  0.467002 38.6836 -2.16508 -161.914 -76.8901 150.305
RightUpLeg  -10.0776 -11.3134 -6.26981
RightLeg  1.16641 -10.9171 3.5829
RightFoot  -1.28967 -0.81208 9.09
RightToes  2.21189e-009 0 -3.6325e-017
Spine  6.52553 -1.59036 -6.73037
Spine1  10.5483 -2.9092 2.57664
HEad  5.57089 -9.27852 0.227875
LeftShoulder1  0.0786121 3.29604 -31.714
LeftArm  1.61384 7.15975 -38.6642
LeftForeArm  14.6395 -20.9452 -4.44663
LeftHand  -0.055893 3.68023 2.62661
RightShoulder  -0.740903 -5.61557 28.4346
RightArm  24.4041 -4.65431 47.1276
RightForeArm  -1.02806 23.4135 5.07081
RightHand  -0.536275 3.40723 -7.3171
LeftUpLeg  13.8808 5.69976 -10.2876
LeftLeg  12.5792 2.0084 -0.536988
LeftFoot  -14.4095 0.340636 9.44523
LeftToes  -3.01956e-010 3.07132e-011 1.04116e-011
529
root  -0.798788 38.4178 -2.35408 -160.889 -76.0865 149.253
RightUpLeg  -8.23313 -10.7307 -5.94721
RightLeg  -5.20848 -24.3678 7.51314
RightFoot  -0.310024 -1.02913 10.6364
RightToes  2.21189e-009 0 -3.6325e-017
Spine  5.24762 -1.6801 -7.00642
Spine1  10.7896 -2.94093 2.69179
HEad  6.78125 -10.6223 0.510513
LeftShoulder1  0.057662 3.35112 -31.6478
LeftArm  1.39265 6.89693 -38.4755
LeftForeArm  14.5159 -20.423 -4.57453
LeftHand  -0.0730043 2.68685 2.60582
RightShoulder  -0.747397 -5.62821 28.5318
RightArm  24.3411 -4.83897 46.7284
RightForeArm  -1.33186 22.5808 5.00544
RightHand  -0.498397 3.87435 -6.50032
LeftUpLeg  15.4963 6.2687 -10.8283
LeftLeg  13.6526 2.29223 -0.515535
LeftFoot  -16.4004 0.497668 9.03342
LeftToes  -3.01956e-010 3.07132e-011 1.04116e-011
530
root  -2.05993 38.189 -2.56105 -161.09 -74.9129 149.919
RightUpLeg  -8.29181 -10.6895 -4.70749
RightLeg  -5.56495 -31.7638 9.28855
RightFoot  -0.924348 -0.735236 7.8102
RightToes  2.21189e-009 0 -3.6325e-017
Spine  3.64618 -1.75767 -6.86046
Spine1  11.1016 -2.95938 2.94532
HEad  7.22821 -12.3831 0.971237
LeftShoulder1  0.0402104 3.39768 -31.7276
LeftArm  1.5888 7.3277 -38.3023
LeftForeArm  13.5814 -19.9743 -4.75469
LeftHand  -0.0766009 3.30525 3.35369
RightShoulder  -0.798246 -5.76233 28.7219
RightArm  24.7379 -5.02775 46.1183
RightForeArm  -1.79157 21.6573 5.05743
RightHand  -0.51079 3.95762 -6.60493
LeftUpLeg  16.5586 7.47737 -10.9058
LeftLeg  14.7917 1.79934 -0.564794
LeftFoot  -18.0143 0.569832 7.86716
LeftToes  -3.01956e-010 3.07132e-011 1.04116e-011
